<?xml version="1.0" encoding="UTF-8"?>
<svg width="700pt" height="700pt" version="1.1" viewBox="0 -100 700 700" xmlns="http://www.w3.org/2000/svg" xmlns:xlink="http://www.w3.org/1999/xlink">
 <defs>
  <symbol id="t" overflow="visible">
   <path d="m18.766-1.125c-0.96875 0.5-1.9805 0.875-3.0312 1.125-1.043 0.25781-2.1367 0.39062-3.2812 0.39062-3.3984 0-6.0898-0.94531-8.0781-2.8438-1.9922-1.9062-2.9844-4.4844-2.9844-7.7344 0-3.2578 0.99219-5.8359 2.9844-7.7344 1.9883-1.9062 4.6797-2.8594 8.0781-2.8594 1.1445 0 2.2383 0.13281 3.2812 0.39062 1.0508 0.25 2.0625 0.625 3.0312 1.125v4.2188c-0.98047-0.65625-1.9453-1.1406-2.8906-1.4531-0.94922-0.3125-1.9492-0.46875-3-0.46875-1.875 0-3.3516 0.60547-4.4219 1.8125-1.0742 1.1992-1.6094 2.8555-1.6094 4.9688 0 2.1055 0.53516 3.7617 1.6094 4.9688 1.0703 1.1992 2.5469 1.7969 4.4219 1.7969 1.0508 0 2.0508-0.14844 3-0.45312 0.94531-0.3125 1.9102-0.80078 2.8906-1.4688z"/>
  </symbol>
  <symbol id="e" overflow="visible">
   <path d="m13.734-11.141c-0.4375-0.19531-0.87109-0.34375-1.2969-0.4375-0.41797-0.10156-0.83984-0.15625-1.2656-0.15625-1.2617 0-2.2305 0.40625-2.9062 1.2188-0.67969 0.80469-1.0156 1.9531-1.0156 3.4531v7.0625h-4.8906v-15.312h4.8906v2.5156c0.625-1 1.3438-1.7266 2.1562-2.1875 0.82031-0.46875 1.8008-0.70312 2.9375-0.70312 0.16406 0 0.34375 0.011719 0.53125 0.03125 0.19531 0.011719 0.47656 0.039062 0.84375 0.078125z"/>
  </symbol>
  <symbol id="a" overflow="visible">
   <path d="m17.641-7.7031v1.4062h-11.453c0.125 1.1484 0.53906 2.0078 1.25 2.5781 0.70703 0.57422 1.7031 0.85938 2.9844 0.85938 1.0312 0 2.082-0.14844 3.1562-0.45312 1.082-0.3125 2.1914-0.77344 3.3281-1.3906v3.7656c-1.1562 0.4375-2.3125 0.76562-3.4688 0.98438-1.1562 0.22656-2.3125 0.34375-3.4688 0.34375-2.7734 0-4.9297-0.70312-6.4688-2.1094-1.5312-1.4062-2.2969-3.3789-2.2969-5.9219 0-2.5 0.75391-4.4609 2.2656-5.8906 1.5078-1.4375 3.582-2.1562 6.2188-2.1562 2.4062 0 4.332 0.73047 5.7812 2.1875 1.4453 1.4492 2.1719 3.3828 2.1719 5.7969zm-5.0312-1.625c0-0.92578-0.27344-1.6719-0.8125-2.2344-0.54297-0.57031-1.25-0.85938-2.125-0.85938-0.94922 0-1.7188 0.26562-2.3125 0.79688s-0.96484 1.2969-1.1094 2.2969z"/>
  </symbol>
  <symbol id="d" overflow="visible">
   <path d="m9.2188-6.8906c-1.0234 0-1.793 0.17188-2.3125 0.51562-0.51172 0.34375-0.76562 0.85547-0.76562 1.5312 0 0.625 0.20703 1.1172 0.625 1.4688 0.41406 0.34375 0.98828 0.51562 1.7188 0.51562 0.92578 0 1.7031-0.32812 2.3281-0.98438 0.63281-0.66406 0.95312-1.4922 0.95312-2.4844v-0.5625zm7.4688-1.8438v8.7344h-4.9219v-2.2656c-0.65625 0.92969-1.3984 1.6055-2.2188 2.0312-0.82422 0.41406-1.8242 0.625-3 0.625-1.5859 0-2.8711-0.45703-3.8594-1.375-0.99219-0.92578-1.4844-2.1289-1.4844-3.6094 0-1.7891 0.61328-3.1016 1.8438-3.9375 1.2383-0.84375 3.1797-1.2656 5.8281-1.2656h2.8906v-0.39062c0-0.76953-0.30859-1.332-0.92188-1.6875-0.61719-0.36328-1.5703-0.54688-2.8594-0.54688-1.0547 0-2.0312 0.10547-2.9375 0.3125-0.89844 0.21094-1.7305 0.52344-2.5 0.9375v-3.7344c1.0391-0.25 2.0859-0.44141 3.1406-0.57812 1.0625-0.13281 2.125-0.20312 3.1875-0.20312 2.7578 0 4.75 0.54688 5.9688 1.6406 1.2266 1.0859 1.8438 2.8555 1.8438 5.3125z"/>
  </symbol>
  <symbol id="c" overflow="visible">
   <path d="m7.7031-19.656v4.3438h5.0469v3.5h-5.0469v6.5c0 0.71094 0.14062 1.1875 0.42188 1.4375s0.83594 0.375 1.6719 0.375h2.5156v3.5h-4.1875c-1.9375 0-3.3125-0.39844-4.125-1.2031-0.80469-0.8125-1.2031-2.1797-1.2031-4.1094v-6.5h-2.4219v-3.5h2.4219v-4.3438z"/>
  </symbol>
  <symbol id="b" overflow="visible">
   <path d="m12.766-13.078v-8.2031h4.9219v21.281h-4.9219v-2.2188c-0.66797 0.90625-1.4062 1.5703-2.2188 1.9844s-1.7578 0.625-2.8281 0.625c-1.8867 0-3.4336-0.75-4.6406-2.25-1.2109-1.5-1.8125-3.4258-1.8125-5.7812 0-2.3633 0.60156-4.2969 1.8125-5.7969 1.207-1.5 2.7539-2.25 4.6406-2.25 1.0625 0 2 0.21484 2.8125 0.64062 0.82031 0.42969 1.5664 1.0859 2.2344 1.9688zm-3.2188 9.9219c1.0391 0 1.8359-0.37891 2.3906-1.1406 0.55078-0.76953 0.82812-1.8828 0.82812-3.3438 0-1.457-0.27734-2.5664-0.82812-3.3281-0.55469-0.76953-1.3516-1.1562-2.3906-1.1562-1.043 0-1.8398 0.38672-2.3906 1.1562-0.55469 0.76172-0.82812 1.8711-0.82812 3.3281 0 1.4609 0.27344 2.5742 0.82812 3.3438 0.55078 0.76172 1.3477 1.1406 2.3906 1.1406z"/>
  </symbol>
  <symbol id="i" overflow="visible">
   <path d="m10.5-3.1562c1.0508 0 1.8516-0.37891 2.4062-1.1406 0.55078-0.76953 0.82812-1.8828 0.82812-3.3438 0-1.457-0.27734-2.5664-0.82812-3.3281-0.55469-0.76953-1.3555-1.1562-2.4062-1.1562-1.0547 0-1.8594 0.38672-2.4219 1.1562-0.55469 0.77344-0.82812 1.8828-0.82812 3.3281 0 1.4492 0.27344 2.5586 0.82812 3.3281 0.5625 0.77344 1.3672 1.1562 2.4219 1.1562zm-3.25-9.9219c0.67578-0.88281 1.4219-1.5391 2.2344-1.9688 0.82031-0.42578 1.7656-0.64062 2.8281-0.64062 1.8945 0 3.4453 0.75 4.6562 2.25 1.207 1.5 1.8125 3.4336 1.8125 5.7969 0 2.3555-0.60547 4.2812-1.8125 5.7812-1.2109 1.5-2.7617 2.25-4.6562 2.25-1.0625 0-2.0078-0.21094-2.8281-0.625-0.8125-0.42578-1.5586-1.0859-2.2344-1.9844v2.2188h-4.8906v-21.281h4.8906z"/>
  </symbol>
  <symbol id="h" overflow="visible">
   <path d="m0.34375-15.312h4.8906l4.125 10.391 3.5-10.391h4.8906l-6.4375 16.766c-0.64844 1.6953-1.4023 2.8828-2.2656 3.5625-0.86719 0.6875-2 1.0312-3.4062 1.0312h-2.8438v-3.2188h1.5312c0.83203 0 1.4375-0.13672 1.8125-0.40625 0.38281-0.26172 0.67969-0.73047 0.89062-1.4062l0.14062-0.42188z"/>
  </symbol>
  <symbol id="g" overflow="visible">
   <path d="m2.5781-20.406h6.6875l4.6562 10.922 4.6719-10.922h6.6875v20.406h-4.9844v-14.938l-4.7031 11.016h-3.3281l-4.7031-11.016v14.938h-4.9844z"/>
  </symbol>
  <symbol id="s" overflow="visible">
   <path d="m6.2188-7.8281-5.5156-7.4844h5.1719l3.1406 4.5312 3.1719-4.5312h5.1719l-5.5156 7.4531 5.7969 7.8594h-5.1875l-3.4375-4.8438-3.4062 4.8438h-5.1875z"/>
  </symbol>
  <symbol id="r" overflow="visible">
   <path d="m12.422-21.281v3.2188h-2.7031c-0.6875 0-1.1719 0.125-1.4531 0.375-0.27344 0.25-0.40625 0.6875-0.40625 1.3125v1.0625h4.1875v3.5h-4.1875v11.812h-4.8906v-11.812h-2.4375v-3.5h2.4375v-1.0625c0-1.6641 0.46094-2.8984 1.3906-3.7031 0.92578-0.80078 2.3672-1.2031 4.3281-1.2031z"/>
  </symbol>
  <symbol id="f" overflow="visible">
   <path d="m9.6406-12.188c-1.0859 0-1.9141 0.39062-2.4844 1.1719-0.57422 0.78125-0.85938 1.9062-0.85938 3.375s0.28516 2.5938 0.85938 3.375c0.57031 0.77344 1.3984 1.1562 2.4844 1.1562 1.0625 0 1.875-0.38281 2.4375-1.1562 0.57031-0.78125 0.85938-1.9062 0.85938-3.375s-0.28906-2.5938-0.85938-3.375c-0.5625-0.78125-1.375-1.1719-2.4375-1.1719zm0-3.5c2.6328 0 4.6914 0.71484 6.1719 2.1406 1.4766 1.418 2.2188 3.3867 2.2188 5.9062 0 2.5117-0.74219 4.4805-2.2188 5.9062-1.4805 1.418-3.5391 2.125-6.1719 2.125-2.6484 0-4.7148-0.70703-6.2031-2.125-1.4922-1.4258-2.2344-3.3945-2.2344-5.9062 0-2.5195 0.74219-4.4883 2.2344-5.9062 1.4883-1.4258 3.5547-2.1406 6.2031-2.1406z"/>
  </symbol>
  <symbol id="q" overflow="visible">
   <path d="m16.547-12.766c0.61328-0.94531 1.3477-1.6719 2.2031-2.1719 0.85156-0.5 1.7891-0.75 2.8125-0.75 1.7578 0 3.0977 0.54688 4.0156 1.6406 0.92578 1.0859 1.3906 2.6562 1.3906 4.7188v9.3281h-4.9219v-7.9844-0.35938c0.007813-0.13281 0.015625-0.32031 0.015625-0.5625 0-1.082-0.16406-1.8633-0.48438-2.3438-0.3125-0.48828-0.82422-0.73438-1.5312-0.73438-0.92969 0-1.6484 0.38672-2.1562 1.1562-0.51172 0.76172-0.77344 1.8672-0.78125 3.3125v7.5156h-4.9219v-7.9844c0-1.6953-0.14844-2.7852-0.4375-3.2656-0.29297-0.48828-0.8125-0.73438-1.5625-0.73438-0.9375 0-1.6641 0.38672-2.1719 1.1562-0.51172 0.76172-0.76562 1.8594-0.76562 3.2969v7.5312h-4.9219v-15.312h4.9219v2.2344c0.60156-0.86328 1.2891-1.5156 2.0625-1.9531 0.78125-0.4375 1.6406-0.65625 2.5781-0.65625 1.0625 0 2 0.25781 2.8125 0.76562 0.8125 0.51172 1.4258 1.2305 1.8438 2.1562z"/>
  </symbol>
  <symbol id="p" overflow="visible">
   <path d="m17.75-9.3281v9.3281h-4.9219v-7.1094c0-1.3438-0.03125-2.2656-0.09375-2.7656s-0.16797-0.86719-0.3125-1.1094c-0.1875-0.3125-0.44922-0.55469-0.78125-0.73438-0.32422-0.17578-0.69531-0.26562-1.1094-0.26562-1.0234 0-1.8242 0.39844-2.4062 1.1875-0.58594 0.78125-0.875 1.8711-0.875 3.2656v7.5312h-4.8906v-21.281h4.8906v8.2031c0.73828-0.88281 1.5195-1.5391 2.3438-1.9688 0.83203-0.42578 1.75-0.64062 2.75-0.64062 1.7695 0 3.1133 0.54688 4.0312 1.6406 0.91406 1.0859 1.375 2.6562 1.375 4.7188z"/>
  </symbol>
  <symbol id="o" overflow="visible">
   <path d="m2.5781-20.406h5.875l7.4219 14v-14h4.9844v20.406h-5.875l-7.4219-14v14h-4.9844z"/>
  </symbol>
  <symbol id="n" overflow="visible">
   <path d="m2.1875-5.9688v-9.3438h4.9219v1.5312c0 0.83594-0.007813 1.875-0.015625 3.125-0.011719 1.25-0.015625 2.0859-0.015625 2.5 0 1.2422 0.03125 2.1328 0.09375 2.6719 0.070313 0.54297 0.17969 0.93359 0.32812 1.1719 0.20703 0.32422 0.47266 0.57422 0.79688 0.75 0.32031 0.16797 0.69141 0.25 1.1094 0.25 1.0195 0 1.8203-0.39062 2.4062-1.1719 0.58203-0.78125 0.875-1.8672 0.875-3.2656v-7.5625h4.8906v15.312h-4.8906v-2.2188c-0.74219 0.89844-1.5234 1.5586-2.3438 1.9844-0.82422 0.41406-1.7344 0.625-2.7344 0.625-1.7617 0-3.1055-0.53906-4.0312-1.625-0.92969-1.082-1.3906-2.6602-1.3906-4.7344z"/>
  </symbol>
  <symbol id="m" overflow="visible">
   <path d="m17.75-9.3281v9.3281h-4.9219v-7.1406c0-1.3203-0.03125-2.2344-0.09375-2.7344s-0.16797-0.86719-0.3125-1.1094c-0.1875-0.3125-0.44922-0.55469-0.78125-0.73438-0.32422-0.17578-0.69531-0.26562-1.1094-0.26562-1.0234 0-1.8242 0.39844-2.4062 1.1875-0.58594 0.78125-0.875 1.8711-0.875 3.2656v7.5312h-4.8906v-15.312h4.8906v2.2344c0.73828-0.88281 1.5195-1.5391 2.3438-1.9688 0.83203-0.42578 1.75-0.64062 2.75-0.64062 1.7695 0 3.1133 0.54688 4.0312 1.6406 0.91406 1.0859 1.375 2.6562 1.375 4.7188z"/>
  </symbol>
  <symbol id="l" overflow="visible">
   <path d="m2.5781-20.406h8.7344c2.5938 0 4.582 0.57812 5.9688 1.7344 1.3945 1.1484 2.0938 2.7891 2.0938 4.9219 0 2.1367-0.69922 3.7812-2.0938 4.9375-1.3867 1.1562-3.375 1.7344-5.9688 1.7344h-3.4844v7.0781h-5.25zm5.25 3.8125v5.7031h2.9219c1.0195 0 1.8047-0.25 2.3594-0.75 0.5625-0.5 0.84375-1.2031 0.84375-2.1094 0-0.91406-0.28125-1.6172-0.84375-2.1094-0.55469-0.48828-1.3398-0.73438-2.3594-0.73438z"/>
  </symbol>
  <symbol id="k" overflow="visible">
   <path d="m2.3594-15.312h4.8906v15.031c0 2.0508-0.49609 3.6172-1.4844 4.7031-0.98047 1.082-2.4062 1.625-4.2812 1.625h-2.4219v-3.2188h0.85938c0.92578 0 1.5625-0.21094 1.9062-0.625 0.35156-0.41797 0.53125-1.2461 0.53125-2.4844zm0-5.9688h4.8906v4h-4.8906z"/>
  </symbol>
  <symbol id="j" overflow="visible">
   <path d="m14.719-14.828v3.9844c-0.65625-0.45703-1.3242-0.79688-2-1.0156-0.66797-0.21875-1.3594-0.32812-2.0781-0.32812-1.3672 0-2.4336 0.40234-3.2031 1.2031-0.76172 0.79297-1.1406 1.9062-1.1406 3.3438 0 1.4297 0.37891 2.543 1.1406 3.3438 0.76953 0.79297 1.8359 1.1875 3.2031 1.1875 0.75781 0 1.4844-0.10938 2.1719-0.32812 0.6875-0.22656 1.3203-0.56641 1.9062-1.0156v4c-0.76172 0.28125-1.5391 0.48828-2.3281 0.625-0.78125 0.14453-1.5742 0.21875-2.375 0.21875-2.7617 0-4.9219-0.70703-6.4844-2.125-1.5547-1.4141-2.3281-3.3828-2.3281-5.9062 0-2.5312 0.77344-4.5039 2.3281-5.9219 1.5625-1.4141 3.7227-2.125 6.4844-2.125 0.80078 0 1.5938 0.074219 2.375 0.21875 0.78125 0.13672 1.5547 0.35156 2.3281 0.64062z"/>
  </symbol>
 </defs>
 <g>
  <path d="m525.69 56h-0.73438-0.003906-0.007813l-309.75 0.16406c-30.609 0.20313-55.508 25.332-55.508 56.023v280.99h-28.082c-3.0938 0-5.6016 2.5039-5.6016 5.6016v49c0 31 25.156 56.223 56.078 56.223h248.43c0.070313 0 0.13672 0 0.20313-0.003906l4.3203-0.16016c30.609-0.20313 55.512-25.332 55.512-56.023v-296.33h77.855c3.0938 0 5.6016-2.5039 5.6016-5.6016v-41.453c0-26.703-21.668-48.43-48.312-48.43zm-343.61 436.8c-24.746 0-44.879-20.195-44.879-45.023v-43.398h237.23v43.398c0 18.398 8.8594 34.758 22.527 45.023zm297.26-44.988c0 24.555-19.91 44.664-44.555 44.828l-4.3047 0.15625c-24.734-0.011719-44.855-20.203-44.855-45.023v-49c0-3.0938-2.5039-5.6016-5.6016-5.6016l-209.14 0.003906v-280.99c0-24.555 19.91-44.664 44.352-44.82l279.86-0.14844c-9.625 8.3711-15.75 20.672-15.75 34.398zm83.461-307.53h-72.258v-38.668c0-18.973 15.434-34.41 34.402-34.414l0.75-0.003906c20.457 0 37.105 16.703 37.105 37.23z"/>
  <path d="m325.16 180.43c14.328 0 28.031 4.3984 39.625 12.711 2.5195 1.8086 6.0117 1.2266 7.8164-1.2852 1.8047-2.5156 1.2266-6.0156-1.2852-7.8164-13.512-9.6914-29.473-14.809-46.156-14.809h-0.082031c-21.176 0.023438-41.074 8.2891-56.039 23.281-14.957 14.996-23.184 34.914-23.16 56.086 0.003906 3.0898 2.5117 5.5938 5.6016 5.5938h0.003907c3.0938-0.003906 5.6016-2.5156 5.5938-5.6055-0.023438-18.184 7.043-35.289 19.891-48.164s29.938-19.973 48.121-19.992h0.070312z"/>
  <path d="m321.36 351.12h0.003906c28.121-0.027344 54.551-11.008 74.418-30.914 19.863-19.91 30.789-46.363 30.762-74.484-0.027344-26.496-9.9297-51.805-27.887-71.262-2.1016-2.2734-5.6562-2.4102-7.9141-0.32422-2.2734 2.1016-2.418 5.6445-0.32422 7.9141 16.047 17.391 24.895 40.008 24.922 63.684 0.027344 25.129-9.7383 48.77-27.492 66.559-17.75 17.789-41.371 27.602-66.5 27.629-3.0938 0.003906-5.6016 2.5117-5.5938 5.6055 0.011719 3.0859 2.5156 5.5938 5.6055 5.5938z"/>
  <path d="m321.12 124.19h0.003906 0.16406c16.035 0 31.648 3.0078 46.402 8.9414 0.68359 0.27344 1.3906 0.40625 2.0898 0.40625 2.2148 0 4.3164-1.3242 5.1953-3.5117 1.1523-2.8711-0.23437-6.1289-3.1055-7.2852-16.09-6.4688-33.102-9.75-50.582-9.75-3.4414-0.16797-5.7812 2.4609-5.7695 5.6055 0.003907 3.0859 2.5117 5.5938 5.6016 5.5938z"/>
  <path d="m248.94 356.73c-14.004-7.9336-26.141-18.293-36.066-30.785-1.9297-2.4297-5.4531-2.8281-7.8711-0.90234-2.4219 1.9258-2.8281 5.4453-0.90234 7.8711 10.828 13.621 24.059 24.914 39.316 33.562 0.875 0.49219 1.8203 0.72656 2.7578 0.72656 1.9531 0 3.8438-1.0234 4.8789-2.8398 1.5234-2.6875 0.57812-6.1055-2.1133-7.6328z"/>
  <path d="m402.41 139.92c-2.4844-1.8594-5.9883-1.3438-7.8359 1.1328-1.8555 2.4766-1.3438 5.9883 1.1328 7.8359 31.77 23.738 50.012 60.07 50.051 99.668 0.011719 9.5977-1.0703 19.152-3.2148 28.387-0.69531 3.0117 1.1797 6.0195 4.1953 6.7227 0.42578 0.097656 0.84766 0.14062 1.2695 0.14062 2.5469 0 4.8516-1.75 5.4531-4.3359 2.3359-10.066 3.5117-20.477 3.5-30.926-0.050782-43.156-19.93-82.75-54.551-108.62z"/>
  <path d="m441.48 298.82c-2.8164-1.3164-6.1406-0.10547-7.4492 2.6914-2.4023 5.1094-5.1562 10.086-8.2031 14.781-23.055 35.586-62.102 56.859-104.44 56.902-3.0938 0.003906-5.6016 2.5156-5.5938 5.6055 0.003906 3.0898 2.5117 5.5938 5.6016 5.5938h0.003907c46.152-0.050782 88.703-23.23 113.83-62.012 3.3242-5.125 6.332-10.551 8.9453-16.117 1.3125-2.7969 0.10938-6.1328-2.6914-7.4453z"/>
  <path d="m222.21 144.09-4.1719 24.133c-0.35937 2.0938 0.49609 4.2148 2.2148 5.4727 1.7188 1.2578 4.0039 1.4258 5.8945 0.44141l21.891-11.426 3.2695 1.707c-24.93 20.746-39.613 51.789-39.582 84.383 0.015626 14.984 3.0078 29.508 8.8867 43.176 0.91406 2.1172 2.9805 3.3867 5.1445 3.3867 0.74219 0 1.4922-0.14844 2.2148-0.45312 2.8398-1.2266 4.1523-4.5156 2.9297-7.3594-5.2773-12.262-7.9609-25.305-7.9805-38.758-0.027344-30.848 14.641-60.133 39.277-78.688l7.7266 4.0312c0.81641 0.42578 1.707 0.63281 2.5938 0.63281 1.1641 0 2.3242-0.35938 3.3047-1.0781 1.7188-1.2578 2.5742-3.3789 2.2148-5.4727l-1.25-7.2383c13.812-7.0195 28.734-10.598 44.363-10.617 3.0938-0.003906 5.6016-2.5117 5.5938-5.6055-0.003906-3.0898-2.5117-5.5938-5.6016-5.5938h-0.003906c-16.25 0.015626-31.809 3.5273-46.332 10.355l-0.9375-5.4336 17.68-17.094c1.5352-1.4883 2.0938-3.7148 1.4336-5.7461-0.65625-2.0352-2.4102-3.5156-4.5273-3.8242l-24.461-3.5273-10.938-21.98c-1.8906-3.8047-8.1367-3.8047-10.031 0l-10.934 21.98-24.469 3.5273c-2.1172 0.30469-3.8711 1.7891-4.5273 3.8242-0.66016 2.0352-0.10547 4.2617 1.4336 5.7461zm14.391-19.523c1.8203-0.26172 3.3945-1.4062 4.2148-3.0508l7.2227-14.531 7.2305 14.531c0.82031 1.6445 2.3945 2.7852 4.2148 3.0508l16.066 2.3125-11.598 11.223c-1.3359 1.2891-1.9414 3.1484-1.625 4.9766l2.7461 15.891-14.441-7.5352c-0.81641-0.42188-1.6992-0.63281-2.5938-0.63281-0.89062 0-1.7773 0.21484-2.5938 0.63281l-14.441 7.5352 2.7461-15.891c0.31641-1.8281-0.28906-3.6875-1.625-4.9766l-11.598-11.223z"/>
  <path d="m357.11 300.75c0.82031 0.42578 1.707 0.63281 2.5938 0.63281 1.1641 0 2.3242-0.35937 3.3047-1.0781 1.7188-1.2578 2.5742-3.3789 2.2148-5.4727l-4.8242-27.906 20.449-19.77c1.5352-1.4883 2.0938-3.7148 1.4336-5.7461-0.65625-2.0352-2.4102-3.5156-4.5273-3.8242l-28.289-4.0742-12.645-25.418c-1.8906-3.8047-8.1367-3.8047-10.031 0l-12.645 25.418-28.289 4.0742c-2.1172 0.30469-3.8711 1.7891-4.5273 3.8242-0.66016 2.0352-0.10547 4.2617 1.4336 5.7461l20.449 19.77-4.8242 27.906c-0.35938 2.0938 0.49609 4.2148 2.2148 5.4727 1.7227 1.2578 4.0039 1.4258 5.8945 0.44141l25.305-13.199zm-45.77-15.168 3.4023-19.672c0.31641-1.8281-0.29688-3.6875-1.625-4.9766l-14.367-13.891 19.895-2.8672c1.8203-0.26172 3.3945-1.4062 4.2148-3.0508l8.9375-17.969 8.9375 17.969c0.82031 1.6445 2.3945 2.7891 4.2148 3.0508l19.895 2.8672-14.367 13.891c-1.3281 1.2891-1.9414 3.1484-1.625 4.9766l3.4023 19.672-17.867-9.3203c-0.81641-0.42188-1.6992-0.63281-2.5938-0.63281-0.89062 0-1.7773 0.21484-2.5938 0.63281z"/>
  <use x="70" y="644" xlink:href="#t"/>
  <use x="90.550781" y="644" xlink:href="#e"/>
  <use x="104.359375" y="644" xlink:href="#a"/>
  <use x="123.347656" y="644" xlink:href="#d"/>
  <use x="142.242188" y="644" xlink:href="#c"/>
  <use x="155.628906" y="644" xlink:href="#a"/>
  <use x="174.617188" y="644" xlink:href="#b"/>
  <use x="204.410156" y="644" xlink:href="#i"/>
  <use x="224.453125" y="644" xlink:href="#h"/>
  <use x="252.453125" y="644" xlink:href="#g"/>
  <use x="280.3125" y="644" xlink:href="#d"/>
  <use x="299.210938" y="644" xlink:href="#b"/>
  <use x="319.25" y="644" xlink:href="#a"/>
  <use x="347.992188" y="644" xlink:href="#s"/>
  <use x="375.796875" y="644" xlink:href="#g"/>
  <use x="403.664062" y="644" xlink:href="#d"/>
  <use x="422.554688" y="644" xlink:href="#b"/>
  <use x="442.601562" y="644" xlink:href="#a"/>
  <use x="70" y="672" xlink:href="#r"/>
  <use x="82.183594" y="672" xlink:href="#e"/>
  <use x="95.992188" y="672" xlink:href="#f"/>
  <use x="115.226562" y="672" xlink:href="#q"/>
  <use x="154.152344" y="672" xlink:href="#c"/>
  <use x="167.535156" y="672" xlink:href="#p"/>
  <use x="187.46875" y="672" xlink:href="#a"/>
  <use x="216.207031" y="672" xlink:href="#o"/>
  <use x="239.640625" y="672" xlink:href="#f"/>
  <use x="258.878906" y="672" xlink:href="#n"/>
  <use x="278.8125" y="672" xlink:href="#m"/>
  <use x="308.492188" y="672" xlink:href="#l"/>
  <use x="329.015625" y="672" xlink:href="#e"/>
  <use x="342.820312" y="672" xlink:href="#f"/>
  <use x="362.058594" y="672" xlink:href="#k"/>
  <use x="371.65625" y="672" xlink:href="#a"/>
  <use x="390.648438" y="672" xlink:href="#j"/>
  <use x="407.242188" y="672" xlink:href="#c"/>
 </g>
</svg>
